<svg width="512" height="512" xmlns="http://www.w3.org/2000/svg">

 <g>
  <title>background</title>
  <rect fill="none" id="canvas_background" height="602" width="802" y="-1" x="-1"/>
 </g>
 <g>
  <title>Layer 1</title>
  <g id="svg_1">
   <g id="svg_2">
    <path fill="#ffffff" id="svg_3" d="m437,268.152l-50.118,0c-6.821,0 -13.425,0.932 -19.71,2.646c-12.398,-24.372 -37.71,-41.118 -66.877,-41.118l-88.59,0c-29.167,0 -54.479,16.746 -66.877,41.118c-6.285,-1.714 -12.889,-2.646 -19.71,-2.646l-50.118,0c-41.355,0 -75,33.645 -75,75l0,80.118c0,24.813 20.187,45 45,45l422,0c24.813,0 45,-20.187 45,-45l0,-80.118c0,-41.355 -33.645,-75 -75,-75zm-300.295,36.53l0,133.589l-91.705,0c-8.271,0 -15,-6.729 -15,-15l0,-80.118c0,-24.813 20.187,-45 45,-45l50.118,0c4.072,0 8.015,0.553 11.769,1.572c-0.108,1.641 -0.182,3.291 -0.182,4.957zm208.59,133.589l-178.59,0l0,-133.59c0,-24.813 20.187,-45 45,-45l88.59,0c24.813,0 45,20.187 45,45l0,133.59zm136.705,-15c0,8.271 -6.729,15 -15,15l-91.705,0l0,-133.59c0,-1.667 -0.074,-3.317 -0.182,-4.957c3.754,-1.018 7.697,-1.572 11.769,-1.572l50.118,0c24.813,0 45,20.187 45,45l0,80.119z"/>
   </g>
  </g>
  <g id="svg_4">
   <g id="svg_5">
    <path fill="#ffffff" id="svg_6" d="m100.06,126.504c-36.749,0 -66.646,29.897 -66.646,66.646c-0.001,36.749 29.897,66.646 66.646,66.646c36.748,0 66.646,-29.897 66.646,-66.646c0,-36.749 -29.897,-66.646 -66.646,-66.646zm-0.001,103.292c-20.207,0 -36.646,-16.439 -36.646,-36.646c0,-20.207 16.439,-36.646 36.646,-36.646c20.207,0 36.646,16.439 36.646,36.646c0,20.207 -16.439,36.646 -36.646,36.646z"/>
   </g>
  </g>
  <g id="svg_7">
   <g id="svg_8">
    <path fill="#ffffff" id="svg_9" d="m256,43.729c-49.096,0 -89.038,39.942 -89.038,89.038c0,49.096 39.942,89.038 89.038,89.038s89.038,-39.942 89.038,-89.038c0,-49.095 -39.942,-89.038 -89.038,-89.038zm0,148.076c-32.554,0 -59.038,-26.484 -59.038,-59.038c0,-32.553 26.484,-59.038 59.038,-59.038s59.038,26.484 59.038,59.038c0,32.554 -26.484,59.038 -59.038,59.038z"/>
   </g>
  </g>
  <g id="svg_10">
   <g id="svg_11">
    <path fill="#ffffff" id="svg_12" d="m411.94,126.504c-36.748,0 -66.646,29.897 -66.646,66.646c0.001,36.749 29.898,66.646 66.646,66.646c36.749,0 66.646,-29.897 66.646,-66.646c0,-36.749 -29.897,-66.646 -66.646,-66.646zm0,103.292c-20.206,0 -36.646,-16.439 -36.646,-36.646c0.001,-20.207 16.44,-36.646 36.646,-36.646c20.207,0 36.646,16.439 36.646,36.646c0,20.207 -16.439,36.646 -36.646,36.646z"/>
   </g>
  </g>
  <g id="svg_13"/>
  <g id="svg_14"/>
  <g id="svg_15"/>
  <g id="svg_16"/>
  <g id="svg_17"/>
  <g id="svg_18"/>
  <g id="svg_19"/>
  <g id="svg_20"/>
  <g id="svg_21"/>
  <g id="svg_22"/>
  <g id="svg_23"/>
  <g id="svg_24"/>
  <g id="svg_25"/>
  <g id="svg_26"/>
  <g id="svg_27"/>
 </g>
</svg>